<svg width="38" height="39" viewBox="0 0 38 39" fill="none" xmlns="http://www.w3.org/2000/svg">
<g clip-path="url(#clip0_247_677)">
<path d="M19.026 20.5725C13.068 20.5725 8.19531 15.9413 8.19531 10.2863C8.19531 4.63125 13.068 0 19.026 0C24.984 0 29.8567 4.63125 29.8567 10.2863C29.8567 15.9413 24.984 20.5725 19.026 20.5725ZM19.026 0.975C13.6363 0.975 9.21825 5.1675 9.21825 10.2897C9.21825 15.412 13.6327 19.6045 19.026 19.6045C24.4193 19.6045 28.8337 15.412 28.8337 10.2897C28.8337 5.1675 24.4157 0.975 19.026 0.975Z" fill="#9A1538"/>
<path d="M19.0261 39C14.2523 39 9.68395 37.5863 5.8855 34.8563C5.11555 34.2713 4.34559 33.6863 3.62697 33.0525C2.85701 32.3213 2.08706 31.5413 1.41976 30.6638C0.961456 30.0788 0.495817 29.445 0.0851743 28.8113C0.0403519 28.748 0.0122794 28.6754 0.00334263 28.5996C-0.00559412 28.5238 0.0048694 28.4471 0.0338442 28.376C0.341826 27.7422 0.701138 27.0597 1.16311 26.4747C2.22173 24.962 3.60652 23.6799 5.22586 22.7135C6.8452 21.747 8.66217 21.1182 10.5566 20.8685C10.9352 20.8263 11.3173 20.9127 11.6354 21.1122C13.7871 22.5889 16.3715 23.3889 19.0261 23.4C21.6852 23.4109 24.2773 22.6074 26.4176 21.1088C26.7164 20.9099 27.0821 20.823 27.4442 20.865C29.3386 21.1147 31.1556 21.7435 32.7749 22.71C34.3943 23.6765 35.7791 24.9585 36.8377 26.4713C37.2635 27.0774 37.641 27.7129 37.967 28.3725C37.9959 28.4436 38.0064 28.5203 37.9975 28.5961C37.9885 28.6719 37.9604 28.7445 37.9156 28.8078C37.505 29.4415 37.0907 30.0753 36.581 30.6603C35.9005 31.5011 35.1632 32.299 34.3738 33.049C33.6552 33.6828 32.9366 34.3165 32.1153 34.8528C28.3682 37.5863 23.7989 39 19.0261 39ZM1.11178 28.5188C1.45852 29.0576 1.83549 29.5783 2.24105 30.0788C2.88836 30.887 3.59271 31.6525 4.34926 32.37C5.01856 33.0062 5.73805 33.5929 6.50147 34.125C10.1286 36.6658 14.5191 38.0329 19.0261 38.025C23.5945 38.025 27.9062 36.66 31.602 34.0763C32.3667 33.5443 33.0874 32.9576 33.7579 32.3213C34.5407 31.6275 35.2471 30.8598 35.8661 30.03C36.2705 29.5284 36.6462 29.0065 36.9917 28.4665C36.7339 27.9366 36.4246 27.4306 36.0677 26.9553C35.0865 25.5578 33.8074 24.3714 32.3132 23.4729C30.8189 22.5744 29.1427 21.9837 27.3929 21.739C27.3372 21.7324 27.2806 21.7378 27.2273 21.7547C27.174 21.7715 27.1254 21.7995 27.0849 21.8365C24.764 23.4742 21.9516 24.3626 19.0602 24.3714C16.1688 24.3801 13.3505 23.5089 11.0185 21.8853C10.9248 21.8313 10.8196 21.798 10.7106 21.7878C7.16876 22.223 4.03761 24.1278 2.03573 27.004C1.67888 27.4794 1.36956 27.9853 1.11178 28.5153V28.5188Z" fill="#9A1538"/>
</g>
<defs>
<clipPath id="clip0_247_677">
<rect width="38" height="39" fill="white"/>
</clipPath>
</defs>
</svg>
