<svg width="51" height="50" viewBox="0 0 51 50" fill="none" xmlns="http://www.w3.org/2000/svg">
<path d="M24.5119 39.9678C24.2326 39.9678 23.9493 39.9868 23.672 39.9678C23.255 39.9319 22.84 39.8732 22.427 39.8108C22.1571 39.7725 21.8905 39.7163 21.6289 39.6424C21.1401 39.4987 20.6533 39.3454 20.1765 39.1714C19.6338 38.9726 19.1154 38.7189 18.6302 38.4146C18.2113 38.1535 17.8003 37.8773 17.4032 37.586C16.8638 37.1883 16.3745 36.7332 15.9448 36.2295C15.6315 35.8606 15.3462 35.4728 15.043 35.0944C15.0153 35.0661 15 35.0289 15 34.9903C15 34.9518 15.0153 34.9146 15.043 34.8863C15.6093 34.0627 16.2897 33.315 17.066 32.6633C17.6448 32.1775 18.2754 31.7502 18.9475 31.3882C19.5226 31.0756 20.1271 30.814 20.7531 30.6069C21.0364 30.5142 21.3197 30.4177 21.609 30.3515C22.2083 30.2022 22.8196 30.0997 23.4365 30.045C24.2455 29.9772 25.0596 29.986 25.8666 30.0715C26.2468 30.1166 26.6244 30.1797 26.9979 30.2607C27.6123 30.3898 28.2132 30.5709 28.7935 30.8017C30.6402 31.5322 32.2503 32.7129 33.4602 34.2241C33.6437 34.4512 33.8013 34.6971 33.9749 34.9317C33.991 34.9481 34 34.9698 34 34.9922C34 35.0147 33.991 35.0363 33.9749 35.0528C33.394 35.9153 32.6866 36.695 31.874 37.3684C31.2977 37.847 30.6713 38.2686 30.0046 38.6265C29.4438 38.936 28.8507 39.1896 28.2349 39.3832C27.8538 39.4987 27.4707 39.6159 27.0817 39.6954C26.5909 39.7957 26.0961 39.8732 25.5973 39.9338C25.2402 39.9773 24.879 39.9792 24.5179 40L24.5119 39.9678ZM24.5119 38.7306V38.706H24.8112C25.3407 38.698 25.8682 38.6441 26.3874 38.5452C26.7527 38.4785 27.1132 38.39 27.4667 38.2803C27.8968 38.1443 28.319 37.9871 28.7317 37.8092C29.4231 37.5026 30.0723 37.117 30.665 36.6609C31.2324 36.2249 31.7512 35.7349 32.2132 35.1984C32.4127 34.9809 32.3948 34.9809 32.2132 34.7747C31.6996 34.1794 31.1159 33.6418 30.4734 33.1723C29.8051 32.6794 29.0661 32.2794 28.2788 31.9842C27.8279 31.8196 27.371 31.6682 26.9101 31.5415C26.5921 31.4539 26.2671 31.3906 25.9385 31.3523C25.5621 31.3016 25.1831 31.2707 24.8032 31.2596C24.4344 31.2517 24.0653 31.2637 23.6979 31.2955C23.3448 31.322 22.9916 31.3712 22.6425 31.428C22.362 31.4748 22.0848 31.538 21.8125 31.6171C21.4094 31.7214 21.013 31.8477 20.6254 31.9955C19.0983 32.621 17.7587 33.5961 16.7269 34.8333C16.6032 34.9809 16.6072 34.9828 16.7269 35.1398C17.1848 35.7031 17.7134 36.2113 18.301 36.6533C19.039 37.2271 19.8679 37.6868 20.7571 38.0154C21.21 38.1762 21.6669 38.3257 22.1297 38.4506C22.4525 38.5365 22.7821 38.5973 23.1153 38.6322C23.5802 38.6757 24.0451 38.6965 24.5119 38.7306Z" fill="white"/>
<path d="M22 34.9946C22.0009 34.3984 22.1498 33.8161 22.4277 33.3219C22.7056 32.8277 23.1 32.4441 23.5604 32.22C24.0208 31.9959 24.5264 31.9415 25.0126 32.0637C25.4989 32.186 25.9438 32.4793 26.2905 32.9063C26.6373 33.3333 26.8701 33.8746 26.9593 34.4611C27.0486 35.0476 26.9902 35.6527 26.7916 36.1992C26.593 36.7457 26.2632 37.2088 25.8443 37.5294C25.4254 37.85 24.9364 38.0135 24.4397 37.9991C23.7875 37.9768 23.1681 37.6507 22.7127 37.0899C22.2573 36.5291 22.0017 35.7776 22 34.9946Z" fill="white"/>
<path d="M45.025 9C45.048 9.29342 45.0691 9.58475 45.0941 9.87818C45.1495 10.7992 45.2747 11.7138 45.4686 12.6126C45.5684 13.092 45.7558 13.5449 46.0198 13.9445C46.3581 14.3977 46.8156 14.7286 47.3316 14.8934C47.8905 15.0864 48.4667 15.2148 49.0506 15.2763C49.6786 15.3533 50.3105 15.4095 50.9385 15.4844C50.9502 15.4848 50.9617 15.4878 50.9722 15.4932C50.9828 15.4986 50.9922 15.5062 51 15.5156L50.4238 15.5676C49.6042 15.6282 48.7889 15.7443 47.9827 15.9152C47.486 16.0109 47.0104 16.2072 46.5807 16.4937C46.1029 16.8476 45.7507 17.3672 45.5819 17.967C45.3919 18.5945 45.267 19.2429 45.2093 19.9003C45.1383 20.5787 45.0864 21.2592 45.0173 21.9376C45.0172 21.9495 45.0147 21.9612 45.0101 21.9719C45.0054 21.9827 44.9987 21.9923 44.9904 22C44.9904 21.8751 44.9731 21.7482 44.9597 21.6254C44.8694 20.7701 44.7868 19.9128 44.6793 19.0596C44.6151 18.5642 44.4858 18.0813 44.2951 17.6257C44.1427 17.2594 43.9183 16.9336 43.6377 16.6708C43.357 16.4081 43.0269 16.2148 42.6703 16.1045C42.114 15.9146 41.5413 15.787 40.9609 15.7237C40.3291 15.6467 39.6953 15.5884 39.0634 15.5156C39.0396 15.5151 39.0169 15.5047 39 15.4865L39.5762 15.4324C40.5055 15.3719 41.4286 15.2285 42.3361 15.0037C42.8133 14.8872 43.2603 14.6561 43.644 14.3274C43.9901 13.9997 44.2493 13.5781 44.395 13.1058C44.6007 12.4566 44.7342 11.7832 44.7926 11.0997C44.8636 10.4213 44.9155 9.74292 44.975 9.06451C44.975 9.0437 44.975 9.02289 44.975 9.00208L45.025 9Z" fill="white"/>
<path d="M26.3694 2C26.6563 2.05582 26.9397 2.12859 27.218 2.21792C28.6092 2.75153 29.415 3.79837 29.7986 5.20569C29.8292 5.32178 29.8659 5.43583 29.9067 5.57228C30.0495 5.52544 30.1617 5.48471 30.2779 5.45212C30.6419 5.33559 31.0117 5.2377 31.3857 5.15885C32.2395 5.0217 33.115 5.15117 33.8924 5.52956C34.6697 5.90796 35.3111 6.51681 35.7288 7.27289C35.8988 7.57747 36.0043 7.91368 36.0388 8.26066C36.1062 9.02441 36.1225 9.79426 36.1266 10.56C36.1674 16.2749 36.2027 21.9897 36.2326 27.7046V27.9856C36.3138 27.9374 36.3835 27.8721 36.4366 27.7942C37.118 26.9367 37.7871 26.0712 38.4766 25.23C38.9488 24.6493 39.572 24.2096 40.2779 23.9592C42.3546 23.2239 44.3742 23.8981 45.4125 25.7209C46.1877 27.0854 46.1816 28.4826 45.4778 29.8858C43.8581 33.1098 42.1241 36.2707 40.3044 39.3827C39.1274 41.3929 37.8565 43.3399 36.3142 45.0853C35.0046 46.5761 33.495 47.8063 31.659 48.6006C30.0247 49.294 28.2886 49.7184 26.5183 49.8572C24.2886 50.0609 22.0609 50.0792 19.8455 49.6963C17.9581 49.3974 16.1661 48.6646 14.6109 47.5558C11.6081 45.3786 10.0088 42.3338 9.30701 38.7982C9.11125 37.6391 9.02655 36.4641 9.05405 35.289C9.01461 28.7921 8.99693 22.2939 9.00101 15.7942C8.99207 14.7664 9.04247 13.7389 9.15197 12.7169C9.19756 12.1476 9.37706 11.5971 9.67588 11.1102C9.97469 10.6232 10.3844 10.2135 10.8717 9.91442C11.4223 9.56391 12.0465 9.34483 12.6957 9.27418C13.3449 9.20354 14.0017 9.28324 14.615 9.50709L15.174 9.69243C15.1923 9.5906 15.2046 9.53764 15.2127 9.48876C15.2984 8.77594 15.3576 8.06311 15.4779 7.35435C15.6819 6.18328 16.2368 5.21994 17.2751 4.59062C18.3135 3.96129 19.409 3.91649 20.5391 4.18329C20.9614 4.28308 21.3694 4.44602 21.7998 4.59062C21.8105 4.5808 21.82 4.56988 21.8284 4.55804C21.9079 4.41547 21.9834 4.27087 22.067 4.13034C22.7117 3.04073 23.595 2.27088 24.8904 2.06925C25.0189 2.04889 25.1474 2.02444 25.2739 2.00204L26.3694 2ZM11.1083 35.5192C11.0827 37.6806 11.5523 39.8192 12.4812 41.7717C13.8867 44.7187 16.1634 46.6372 19.3559 47.4519C21.074 47.8669 22.8443 48.0248 24.6089 47.9203C25.9894 47.8664 27.3624 47.6892 28.7112 47.3908C31.2796 46.8043 33.3461 45.4356 35.0188 43.4234C36.0137 42.2225 36.916 40.948 37.7177 39.6108C39.7672 36.2164 41.697 32.7541 43.5072 29.2239C43.8344 28.6426 43.9518 27.9668 43.8397 27.3094C43.7677 26.9081 43.5637 26.5422 43.26 26.2696C42.9563 25.997 42.5702 25.8333 42.1628 25.8044C41.7389 25.7491 41.3079 25.8085 40.9149 25.9766C40.522 26.1446 40.1815 26.4151 39.9291 26.7595C38.8091 28.2056 37.6749 29.6414 36.5427 31.0772C36.3061 31.3787 36.0511 31.6679 35.8002 31.9571C35.5003 32.3013 35.1249 32.2198 34.7577 32.12C34.6047 32.0842 34.4699 31.9939 34.3787 31.8661C34.2874 31.7383 34.246 31.5817 34.262 31.4255C34.2355 29.7188 34.1865 28.0141 34.1743 26.3095C34.1335 20.9286 34.0988 15.5492 34.0703 10.171C34.0703 9.7963 34.0437 9.41952 34.0274 9.04478C34.0301 8.65835 33.9062 8.28163 33.6745 7.97204C33.4429 7.66245 33.1162 7.43695 32.7443 7.32991C32.3165 7.18044 31.8527 7.16801 31.4175 7.29433C30.9823 7.42066 30.5975 7.67944 30.3167 8.03459C30.0951 8.28118 29.9774 8.60368 29.9883 8.93479C29.9679 13.6374 29.9312 18.338 29.9026 23.0406C29.9093 23.1086 29.8979 23.1772 29.8696 23.2394C29.8413 23.3016 29.7971 23.3553 29.7414 23.395C29.6354 23.4704 29.5374 23.5681 29.4395 23.6455C29.2646 23.7883 29.0431 23.8618 28.8174 23.852C28.5917 23.8422 28.3774 23.7499 28.2155 23.5926C28.0948 23.5 27.998 23.38 27.9331 23.2426C27.8681 23.1051 27.837 22.9542 27.8422 22.8023C27.8232 17.0712 27.7912 11.3408 27.7463 5.61098C27.7257 5.41974 27.6554 5.2372 27.5423 5.08145C26.7264 3.80855 25.1311 3.68635 24.1233 4.80447C23.8494 5.11237 23.7035 5.513 23.7153 5.92463C23.6888 7.92462 23.6399 9.92257 23.6236 11.9226C23.5909 15.6537 23.5691 19.3842 23.5583 23.1139C23.561 23.1934 23.5438 23.2724 23.5082 23.3435C23.4725 23.4147 23.4196 23.4758 23.3543 23.5213C22.8055 23.9714 22.318 23.9653 21.7713 23.5029C21.7143 23.4596 21.6688 23.403 21.6389 23.338C21.609 23.273 21.5956 23.2016 21.5999 23.1302C21.5836 19.9313 21.5639 16.7318 21.5407 13.5315C21.5244 11.7678 21.4877 10.004 21.4591 8.23623C21.4591 8.03256 21.4408 7.84519 21.4224 7.64967C21.4039 7.29185 21.2589 6.95218 21.0131 6.69111C20.7673 6.43005 20.4367 6.26453 20.0801 6.22402C19.692 6.1792 19.3005 6.17306 18.9112 6.20569C18.6975 6.21948 18.4908 6.28703 18.3103 6.40205C18.1299 6.51707 17.9815 6.67582 17.879 6.86352C17.5622 7.33705 17.3913 7.89286 17.3873 8.46229C17.3751 13.116 17.3282 17.7677 17.2874 22.4215C17.2874 22.9266 17.2588 23.4398 17.2384 23.9388C17.2099 24.7046 16.6264 25.0875 15.9084 24.7942C15.5004 24.6313 15.3209 24.4317 15.3168 23.9795C15.2739 20.4134 15.2556 16.8513 15.1434 13.281C15.1067 12.169 14.3621 11.3156 13.2809 11.4053C13.1605 11.4175 13.0361 11.4052 12.9137 11.4154C12.0161 11.4806 11.553 11.8594 11.2939 12.7209C11.1109 13.4253 11.0325 14.1527 11.0614 14.8798C11.0491 17.4745 11.0471 20.0712 11.041 22.6659C11.041 23.5803 11.041 24.4989 11.041 25.4092H11.1063C11.1124 28.7758 11.1246 32.1485 11.1083 35.5192Z" fill="white"/>
<path d="M6.52392 0C6.54889 0.291387 6.57177 0.584855 6.59882 0.878322C6.65799 1.79855 6.79157 2.71247 6.99824 3.61111C7.10929 4.09207 7.31587 4.54577 7.6057 4.94524C7.97101 5.3983 8.46608 5.72876 9.02448 5.89225C9.62945 6.08689 10.2537 6.21529 10.8864 6.27522C11.5666 6.35431 12.2511 6.4105 12.9334 6.48335C12.9461 6.48379 12.9585 6.48678 12.9699 6.49215C12.9813 6.49751 12.9916 6.50514 13 6.51457L12.3759 6.5666C11.4882 6.62649 10.6051 6.74188 9.7318 6.9121C9.19428 7.00976 8.67943 7.20592 8.21315 7.49071C7.69776 7.84682 7.31682 8.36574 7.13138 8.9643C6.92581 9.59262 6.79045 10.2418 6.7278 10.8999C6.65082 11.5785 6.59465 12.257 6.51976 12.9355C6.51929 12.9478 6.51627 12.9599 6.5109 12.971C6.50553 12.9821 6.49792 12.992 6.48856 13C6.47816 12.873 6.47191 12.7482 6.45735 12.6233C6.3575 11.7679 6.26804 10.9124 6.15154 10.0591C6.08206 9.56363 5.94195 9.08071 5.73548 8.62504C5.57116 8.25812 5.3284 7.93172 5.02432 7.66884C4.72023 7.40597 4.36222 7.21302 3.97552 7.10359C3.37396 6.91261 2.75414 6.78496 2.1261 6.7227C1.44167 6.64361 0.755161 6.58741 0.0686514 6.51457C0.0556701 6.51441 0.0428636 6.51156 0.031045 6.50618C0.0192264 6.50081 0.00865385 6.49303 0 6.48335L0.6241 6.43132C1.63082 6.37113 2.63077 6.22702 3.61354 6.00048C4.13051 5.88533 4.61481 5.6548 5.03024 5.32613C5.40473 4.99728 5.68539 4.575 5.84365 4.1023C6.06666 3.45379 6.21123 2.78089 6.27428 2.09798C6.35126 1.41947 6.40742 0.738875 6.47191 0.0603604C6.47437 0.0400793 6.47784 0.0199325 6.48232 0H6.52392Z" fill="white"/>
</svg>
