<svg width="45" height="38" viewBox="0 0 45 38" fill="none" xmlns="http://www.w3.org/2000/svg">
<path d="M32.4365 1C28.3227 1 24.5806 3.14859 22.4983 6.66132C20.4169 3.15023 16.6798 1 12.5643 1C6.18831 1 1 6.20496 1 12.6022C1 21.3643 12.3616 29.6585 19.1515 34.6127C20.34 35.4818 21.3943 36.2506 22.2322 36.9068C22.3077 36.9671 22.4024 37 22.5 37C22.5976 37 22.6923 36.9671 22.7678 36.9068C23.6057 36.249 24.6583 35.4818 25.8485 34.6127C32.635 29.6569 44 21.3627 44 12.6022C44 6.20496 38.8108 1 32.4365 1ZM25.3349 33.9483C24.2604 34.7327 23.2949 35.4391 22.4983 36.0525C21.7026 35.4391 20.7362 34.7327 19.6617 33.9483C13.0002 29.0862 1.85149 20.9474 1.85149 12.6014C1.85149 6.66132 6.65714 1.82967 12.5643 1.82967C16.619 1.82967 20.2775 4.08762 22.1182 7.72369C22.1528 7.79332 22.207 7.85201 22.2744 7.89303C22.3418 7.93405 22.4197 7.95573 22.4992 7.95557C22.5789 7.95538 22.657 7.93349 22.7246 7.89237C22.7922 7.85125 22.8467 7.79254 22.8818 7.72287C24.7242 4.08762 28.3844 1.82885 32.4374 1.82885C38.342 1.82885 43.1477 6.6605 43.1477 12.6006C43.1477 20.9491 31.9964 29.0862 25.3349 33.9483Z" fill="white" stroke="white" stroke-width="1.25"/>
</svg>
