<svg width="235" height="83" viewBox="0 0 235 83" fill="none" xmlns="http://www.w3.org/2000/svg">
<g clip-path="url(#clip0_154_2810)">
<path d="M35.6376 36.8902C35.6376 47.9715 28.0801 53.0869 19.8592 53.0869H0V0.624512H18.4555C25.2016 0.624512 30.621 5.57335 30.621 13.9186C30.6415 15.8061 30.2144 17.6714 29.375 19.3604C28.5357 21.0494 27.3082 22.5135 25.7939 23.6318C25.7939 23.6318 35.6376 28.539 35.6376 36.8902ZM7.39761 20.9076H18.651C21.1859 20.7054 23.1938 17.5529 23.1938 13.9186C23.1938 10.2843 21.0557 7.06631 18.4555 7.06631H7.39761V20.9076ZM28.7198 36.9972C28.7198 31.2395 24.1059 27.5576 20.1554 27.3494H7.39761V46.6451H19.8355C23.9815 46.6451 28.7553 43.0167 28.7553 36.9972H28.7198Z" fill="white"/>
<path d="M89.553 46.6451V53.0869H56.8472V0.624512H64.2566V46.6451H89.553Z" fill="white"/>
<path d="M117.704 53.0869H110.289V0.624512H117.704V53.0869Z" fill="white"/>
<path d="M176.624 44.0577C174.214 50.0058 167.468 53.7174 159.04 53.7829C155.504 53.7477 152.016 52.956 148.81 51.4606C145.603 49.9652 142.75 47.8004 140.442 45.1105L145.399 39.9357C147.739 44.2718 153.691 47.347 159.022 47.347C164.838 47.2756 168.25 45.0391 169.683 41.5476C170.33 39.7926 170.375 37.8713 169.813 36.0872C168.404 32.0306 164.53 31.1265 159.045 29.3778C152.827 27.4149 145.672 25.8089 143.326 18.9507C142.708 17.151 142.46 15.2436 142.599 13.3447C142.737 11.4458 143.259 9.59508 144.132 7.90505C148.011 0.208189 157.902 0 159.045 0C166.396 0 172.952 3.35474 177.631 8.73778L172.751 13.8472C171.221 11.5982 169.175 9.7512 166.786 8.46149C164.396 7.17177 161.734 6.47709 159.022 6.43587C158.957 6.43587 153.099 6.43586 150.795 10.9088C149.913 12.7399 149.744 14.8359 150.321 16.7856C151.666 20.6281 155.48 21.5441 160.822 23.2214C167.183 25.2498 174.332 26.7903 176.879 33.8507C178.003 37.1756 177.913 40.7936 176.624 44.0577Z" fill="white"/>
<path d="M233.946 44.0577C231.535 50.0058 224.777 53.7174 216.355 53.7829C212.82 53.7469 209.334 52.9548 206.128 51.4594C202.922 49.964 200.071 47.7996 197.763 45.1105L202.715 39.9357C205.084 44.2718 211.007 47.347 216.337 47.347C222.159 47.2756 225.565 45.0391 226.998 41.5476C227.649 39.7936 227.697 37.8717 227.134 36.0872C225.719 32.0306 221.851 31.1265 216.367 29.3778C210.148 27.4149 202.993 25.8089 200.648 18.9507C200.033 17.1501 199.788 15.2434 199.927 13.3452C200.065 11.447 200.584 9.59653 201.453 7.90505C205.333 0.208189 215.236 0 216.367 0C223.723 0 230.274 3.35474 234.964 8.73778L230.072 13.8472C228.544 11.6011 226.503 9.75586 224.118 8.46626C221.733 7.17667 219.075 6.48039 216.367 6.43587C216.302 6.43587 210.444 6.43586 208.14 10.9088C207.256 12.7398 207.091 14.838 207.678 16.7856C209.005 20.6281 212.825 21.5441 218.173 23.2214C224.528 25.2498 231.677 26.7903 234.218 33.8507C235.346 37.1762 235.25 40.7977 233.946 44.0577Z" fill="white"/>
<path d="M1.84814 70.8836V74.8569H6.98322V76.4153H1.84814V82.0482H0.0712891V69.3252H8.13818V70.8836H1.84814Z" fill="white"/>
<path d="M23.0814 80.4898V82.0482H15.1626V69.3252H16.9394V80.4898H23.0814Z" fill="white"/>
<path d="M41.6611 75.6838C41.6611 79.3836 38.8892 82.2268 35.4836 82.2268C32.078 82.2268 29.312 79.3895 29.312 75.6838C29.312 71.9782 32.0839 69.1707 35.4836 69.1707C36.3173 69.1836 37.1401 69.3632 37.9039 69.699C38.6677 70.0348 39.3573 70.52 39.9323 71.1263C40.5074 71.7326 40.9565 72.4479 41.2533 73.2304C41.5501 74.0129 41.6887 74.8469 41.6611 75.6838ZM31.1126 75.6838C31.1126 78.2832 32.9249 80.6565 35.4836 80.6565C38.0423 80.6565 39.8606 78.2772 39.8606 75.6838C39.8606 73.0905 38.0482 70.7291 35.4836 70.7291C32.919 70.7291 31.0889 73.1083 31.0889 75.6838H31.1126Z" fill="white"/>
<path d="M51.7358 82.0482L47.4121 69.3252H49.3193L52.2214 78.3009L55.2836 69.3252H56.2075L59.2696 78.3009L62.1659 69.3252H64.0967L59.7671 82.0482H58.8491L55.7515 73.126L52.6597 82.0482H51.7358Z" fill="white"/>
<path d="M79.0637 80.4898V82.0482H70.6592V69.3252H78.7438V70.8836H72.4538V74.6488H77.5948V76.231H72.4538V80.4898H79.0637Z" fill="white"/>
<path d="M92.6861 78.0096L95.2922 82.0484H93.2784L90.9093 78.3546H88.0723V82.0543H86.2954V69.3313H91.0337C91.612 69.3389 92.183 69.4622 92.7134 69.6939C93.2437 69.9257 93.7228 70.2612 94.1225 70.681C94.5223 71.1007 94.8348 71.5963 95.0417 72.1387C95.2486 72.6811 95.3459 73.2594 95.3277 73.84C95.3456 74.7191 95.1044 75.5839 94.6344 76.3257C94.1644 77.0676 93.4866 77.6534 92.6861 78.0096ZM88.0841 76.82H90.9804C92.3604 76.82 93.4916 75.5947 93.4916 73.8459C93.4916 72.0972 92.3604 70.8719 90.9804 70.8719H88.0841V76.82Z" fill="white"/>
<path d="M121.335 78.1462C121.37 79.1446 121.009 80.1162 120.332 80.8477C119.655 81.5793 118.716 82.011 117.722 82.0482H112.913V69.3252H117.722C118.54 69.3592 119.311 69.7178 119.866 70.3222C120.422 70.9265 120.715 71.7274 120.683 72.5491C120.693 73.4323 120.362 74.2851 119.759 74.9283C120.254 75.3041 120.654 75.7908 120.927 76.3496C121.201 76.9083 121.34 77.5236 121.335 78.1462ZM114.707 74.2443H117.769C118.362 74.1907 118.871 73.4294 118.871 72.5491C118.871 71.6688 118.356 70.8836 117.722 70.8836H114.707V74.2443ZM119.534 78.1462C119.534 76.8912 118.758 75.8562 117.805 75.8027H114.707V80.4898H117.722C118.747 80.4898 119.534 79.437 119.534 78.1462Z" fill="white"/>
<path d="M140.56 75.6838C140.56 79.3836 137.789 82.2268 134.389 82.2268C130.989 82.2268 128.217 79.3895 128.217 75.6838C128.217 71.9782 130.983 69.1707 134.389 69.1707C137.795 69.1707 140.56 71.9841 140.56 75.6838ZM130.018 75.6838C130.018 78.2832 131.83 80.6565 134.389 80.6565C136.948 80.6565 138.766 78.2772 138.766 75.6838C138.766 73.0905 136.948 70.7291 134.389 70.7291C131.83 70.7291 130 73.1083 130 75.6838H130.018Z" fill="white"/>
<path d="M157.198 69.3252V77.0577C157.198 79.1098 156.422 82.2207 152.341 82.2207C148.26 82.2207 147.443 79.1098 147.443 77.0577V69.3252H149.22V77.0577C149.22 77.825 149.38 80.6563 152.317 80.6563C155.255 80.6563 155.374 77.825 155.374 77.0577V69.3252H157.198Z" fill="white"/>
<path d="M172.585 70.8836H168.83V82.0482H167.053V70.8836H163.292V69.3252H172.585V70.8836Z" fill="white"/>
<path d="M180.937 82.0482H179.16V69.3252H180.937V82.0482Z" fill="white"/>
<path d="M200.227 83.0001L198.557 81.1146C197.52 81.8852 196.251 82.2756 194.962 82.2209C191.544 82.2209 188.79 79.3837 188.79 75.678C188.79 71.9723 191.544 69.1648 194.962 69.1648C198.379 69.1648 201.133 71.9783 201.133 75.678C201.139 77.2577 200.615 78.7934 199.647 80.038L201.329 81.9235L200.227 83.0001ZM197.473 79.8952L195.643 77.8253L196.744 76.7546L198.48 78.7413C199.041 77.8218 199.332 76.7622 199.321 75.6839C199.321 73.0906 197.544 70.7292 194.962 70.7292C192.379 70.7292 190.585 73.1084 190.585 75.6839C190.585 78.0929 192.255 80.6566 194.962 80.6566C195.862 80.7079 196.751 80.4382 197.473 79.8952Z" fill="white"/>
<path d="M218.292 69.3252V77.0577C218.292 79.1098 217.51 82.2207 213.429 82.2207C209.348 82.2207 208.537 79.1098 208.537 77.0577V69.3252H210.313V77.0577C210.313 77.825 210.479 80.6563 213.411 80.6563C216.343 80.6563 216.473 77.825 216.473 77.0577V69.3252H218.292Z" fill="white"/>
<path d="M234.242 80.4898V82.0482H225.82V69.3252H233.904V70.8836H227.62V74.6488H232.755V76.231H227.62V80.4898H234.242Z" fill="white"/>
</g>
<defs>
<clipPath id="clip0_154_2810">
<rect width="235" height="83" fill="white"/>
</clipPath>
</defs>
</svg>
