<svg width="44" height="46" viewBox="0 0 44 46" fill="none" xmlns="http://www.w3.org/2000/svg">
<path d="M1 11H43C42.5738 12.2741 42.1793 13.4833 41.7605 14.6982C38.3767 24.4734 34.9955 34.2486 31.6167 44.0238C31.3587 44.7745 31.0222 45.0038 30.2632 45C24.7045 44.9681 19.1472 44.9681 13.591 45C12.9423 45 12.6301 44.8089 12.4095 44.1652C8.70791 33.4221 4.99261 22.6842 1.2636 11.9513C1.16452 11.6628 1.09908 11.3649 1 11ZM40.3696 12.9331H3.63786C3.72946 13.2636 3.78181 13.5062 3.86033 13.7259C7.16185 23.268 10.4603 32.8102 13.7555 42.3524C13.9631 42.956 14.264 43.1413 14.8772 43.1394C19.5846 43.1139 24.292 43.1139 28.9994 43.1394C29.7472 43.1394 30.0332 42.8834 30.2725 42.1843C33.0082 34.211 35.7638 26.2454 38.5394 18.2875C39.1526 16.5224 39.7527 14.7459 40.3696 12.9331Z" fill="white" stroke="white" stroke-width="0.25"/>
<path d="M31 9.99308C30.4886 9.99308 30.1439 9.96647 29.803 9.99308C29.2219 10.0463 29.0689 9.79154 29.0282 9.24966C28.8704 7.51859 28.0561 5.90883 26.7465 4.73913C25.437 3.56942 23.7278 2.92508 21.9573 2.93369C20.1868 2.9423 18.4842 3.60323 17.1865 4.78561C15.8889 5.96799 15.0909 7.58559 14.9505 9.3181C14.9331 9.49683 14.9079 9.67556 14.8788 9.91893H13C13.0814 6.83684 14.3132 4.38409 16.8526 2.67478C19.9517 0.592794 23.26 0.44449 26.5102 2.27169C29.4369 3.92967 30.907 6.52121 31 9.99308Z" fill="white" stroke="white" stroke-width="0.25"/>
</svg>
